<svg t="1681802209755" class="icon" viewBox="0 0 1024 1024" version="1.1" xmlns="http://www.w3.org/2000/svg" p-id="5219" width="48" height="48"><path d="M928 160H96c-17.7 0-32 14.3-32 32v640c0 17.7 14.3 32 32 32h832c17.7 0 32-14.3 32-32V192c0-17.7-14.3-32-32-32z m-40 110.8V792H136V270.8l-27.6-21.5 39.3-50.5 42.8 33.3h643.1l42.8-33.3 39.3 50.5-27.7 21.5z" fill="#010101" p-id="5220"></path><path d="M833.6 232L512 482 190.4 232l-42.8-33.3-39.3 50.5 27.6 21.5 341.6 265.6c20.2 15.7 48.5 15.7 68.7 0L888 270.8l27.6-21.5-39.3-50.5-42.7 33.2z" p-id="5221"></path></svg>