<svg id="Layer_1" data-name="Layer 1" xmlns="http://www.w3.org/2000/svg" viewBox="0 0 122.88 121.83"><defs><style>.cls-1,.cls-2{fill-rule:evenodd;}.cls-2{fill:red;}.cls-3{fill:#fff;}</style></defs><title>css</title><path class="cls-1" d="M102.42,37H81.92a8.52,8.52,0,0,1-8.85-8.7V7.53H21a.58.58,0,0,0-.41.18.45.45,0,0,0-.18.42V113.71a.7.7,0,0,0,.18.41.51.51,0,0,0,.41.18h80.84c.18,0,.17-.09.26-.18s.34-.28.34-.41V37Zm7.47,79.08a5.77,5.77,0,0,1-5.76,5.76H18.66a5.77,5.77,0,0,1-5.76-5.76V5.76a5.7,5.7,0,0,1,1.69-4.07A5.77,5.77,0,0,1,18.66,0H76.9a4.22,4.22,0,0,1,2.46.82l29.75,30.12a2.57,2.57,0,0,1,.78,2.6v82.53ZM80,27.69,79.57,9.63,100.66,31l-18.14-.81A2.4,2.4,0,0,1,80,27.69Z"/><path class="cls-2" d="M6.71,46.28H116.17A6.73,6.73,0,0,1,122.88,53v45.1a6.73,6.73,0,0,1-6.71,6.71H6.71A6.73,6.73,0,0,1,0,98.09V53a6.73,6.73,0,0,1,6.71-6.71Z"/><path class="cls-3" d="M35.81,78.4,44.35,81a15.54,15.54,0,0,1-2.72,6A11.72,11.72,0,0,1,37,90.61a17.3,17.3,0,0,1-7,1.22,20.44,20.44,0,0,1-8.41-1.49A13.39,13.39,0,0,1,16,85.09a17.79,17.79,0,0,1-2.37-9.62q0-7.81,4.16-12t11.78-4.2q6,0,9.38,2.41A14.16,14.16,0,0,1,44,69.06L35.45,71a7.28,7.28,0,0,0-.94-2.09,5.68,5.68,0,0,0-2-1.71,5.77,5.77,0,0,0-2.65-.6,5.74,5.74,0,0,0-5.08,2.65q-1.34,2-1.34,6.2,0,5.24,1.6,7.17a5.44,5.44,0,0,0,4.47,1.94A5.41,5.41,0,0,0,33.73,83a9.79,9.79,0,0,0,2.08-4.55Zm12.3,2.48,9.25-.58a7,7,0,0,0,1.22,3.41,5.18,5.18,0,0,0,4.3,1.91,4.75,4.75,0,0,0,3.21-1,2.92,2.92,0,0,0,1.13-2.27,2.88,2.88,0,0,0-1.06-2.19c-.71-.65-2.37-1.25-5-1.83q-6.41-1.44-9.13-3.83a7.67,7.67,0,0,1-2.75-6.07,8.22,8.22,0,0,1,1.41-4.58,9.27,9.27,0,0,1,4.23-3.4,19.89,19.89,0,0,1,7.75-1.23q6,0,9.21,2.25c2.12,1.5,3.37,3.88,3.78,7.16l-9.16.54A5,5,0,0,0,65,66.08a4.9,4.9,0,0,0-3.23-1,4,4,0,0,0-2.56.72,2.2,2.2,0,0,0-.86,1.76A1.78,1.78,0,0,0,59,68.93a7.84,7.84,0,0,0,3.26,1.16,40.07,40.07,0,0,1,9.13,2.79,9.51,9.51,0,0,1,4,3.49A8.84,8.84,0,0,1,76.69,81,10.09,10.09,0,0,1,75,86.63a10.57,10.57,0,0,1-4.69,3.88,18.94,18.94,0,0,1-7.58,1.32q-8,0-11.14-3.1a12.18,12.18,0,0,1-3.5-7.85Zm32.53,0,9.25-.58a6.89,6.89,0,0,0,1.23,3.41,5.15,5.15,0,0,0,4.3,1.91,4.74,4.74,0,0,0,3.2-1,2.92,2.92,0,0,0,1.13-2.27,2.88,2.88,0,0,0-1.06-2.19c-.71-.65-2.37-1.25-5-1.83q-6.4-1.44-9.13-3.83a7.67,7.67,0,0,1-2.75-6.07,8.22,8.22,0,0,1,1.41-4.58,9.25,9.25,0,0,1,4.24-3.4,19.85,19.85,0,0,1,7.75-1.23q6,0,9.21,2.25c2.11,1.5,3.36,3.88,3.77,7.16l-9.16.54a5,5,0,0,0-1.53-3.12,5,5,0,0,0-3.24-1,4,4,0,0,0-2.56.72,2.23,2.23,0,0,0-.86,1.76,1.76,1.76,0,0,0,.7,1.35,7.72,7.72,0,0,0,3.25,1.16,40.07,40.07,0,0,1,9.13,2.79,9.54,9.54,0,0,1,4,3.49A8.92,8.92,0,0,1,109.22,81a10.09,10.09,0,0,1-1.67,5.59,10.57,10.57,0,0,1-4.69,3.88,18.94,18.94,0,0,1-7.58,1.32q-8,0-11.14-3.1a12.23,12.23,0,0,1-3.5-7.85Z"/></svg>